# Blender v2.90.0 OBJ File: ''
# www.blender.org

v 423.000031 329.999969 247.000015
v 265.000031 329.999939 296.000031
v 314.000031 329.999939 456.000031
v 472.000031 329.999939 406.000000
v 423.000031 -0.000040 246.999969
v 423.000031 329.999969 247.000015
v 472.000031 329.999939 406.000000
v 472.000031 -0.000066 405.999969
v 472.000031 -0.000066 405.999969
v 472.000031 329.999939 406.000000
v 314.000031 329.999939 456.000031
v 314.000031 -0.000074 455.999969
v 314.000031 -0.000074 455.999969
v 314.000031 329.999939 456.000031
v 265.000031 329.999939 296.000031
v 265.000031 -0.000048 295.999969
v 265.000031 -0.000048 295.999969
v 265.000031 329.999939 296.000031
v 423.000031 329.999969 247.000015
v 423.000031 -0.000040 246.999969
v 472.000031 -0.000066 405.999969
v 314.000031 -0.000074 455.999969
v 265.000031 -0.000048 295.999969
v 423.000031 -0.000040 246.999969
vt 0.250557 0.758386
vt 0.000637 0.757941
vt 0.000192 0.505133
vt 0.250557 0.507021
vt 0.000192 0.253384
vt 0.498754 0.253384
vt 0.498754 0.504749
vt 0.000192 0.504749
vt 0.499138 0.498754
vt 0.499138 0.000192
vt 0.749510 0.000192
vt 0.749510 0.498754
vt 0.498754 0.253000
vt 0.000192 0.253001
vt 0.000192 0.000192
vt 0.498754 0.000192
vt 0.749059 0.499137
vt 0.749059 0.997699
vt 0.499138 0.997699
vt 0.499138 0.499137
vt 0.999808 0.750502
vt 0.749442 0.752391
vt 0.749887 0.499582
vt 0.999808 0.499137
vn -0.0000 1.0000 -0.0000
vn 0.9556 0.0000 -0.2945
vn 0.3017 -0.0000 0.9534
vn -0.9562 -0.0000 0.2928
vn -0.2962 0.0000 -0.9551
vn -0.0000 -1.0000 -0.0000

s 1
f 1/1/1 2/2/1 3/3/1
f 1/1/1 3/3/1 4/4/1
f 5/5/2 6/6/2 7/7/2
f 5/5/2 7/7/2 8/8/2
f 9/9/3 10/10/3 11/11/3
f 9/9/3 11/11/3 12/12/3
f 13/13/4 14/14/4 15/15/4
f 13/13/4 15/15/4 16/16/4
f 17/17/5 18/18/5 19/19/5
f 17/17/5 19/19/5 20/20/5
f 21/21/6 22/22/6 23/23/6
f 21/21/6 23/23/6 24/24/6
