# Blender v2.90.0 OBJ File: ''
# www.blender.org
mtllib SmallBox.mtl
o SmallBox
v 130.000000 164.999969 65.000031
v 82.000046 164.999939 225.000031
v 240.000061 164.999908 272.000000
v 290.000000 164.999969 114.000000
v 290.000000 -0.000038 113.999954
v 290.000000 164.999969 114.000000
v 240.000061 164.999908 272.000000
v 240.000061 -0.000088 271.999939
v 130.000000 -0.000022 64.999985
v 130.000000 164.999969 65.000031
v 290.000000 164.999969 114.000000
v 290.000000 -0.000038 113.999954
v 82.000046 -0.000074 225.000000
v 82.000046 164.999939 225.000031
v 130.000000 164.999969 65.000031
v 130.000000 -0.000022 64.999985
v 240.000061 -0.000088 271.999939
v 240.000061 164.999908 272.000000
v 82.000046 164.999939 225.000031
v 82.000046 -0.000074 225.000000
v 290.000000 -0.000038 113.999954
v 240.000061 -0.000088 271.999939
v 82.000046 -0.000074 225.000000
v 130.000000 -0.000022 64.999985
vt 0.335875 0.000200
vt 0.335875 0.335298
vt 0.005196 0.334530
vt 0.000200 0.002121
vt 0.668720 0.667676
vt 0.668720 0.998672
vt 0.336275 0.998672
vt 0.336275 0.667676
vt 0.331196 0.671378
vt 0.000200 0.671378
vt 0.000200 0.335698
vt 0.331196 0.335698
vt 0.671373 0.336280
vt 0.671373 0.667276
vt 0.336275 0.667276
vt 0.336275 0.336280
vt 0.999800 0.667676
vt 0.999800 0.998672
vt 0.669120 0.998672
vt 0.669120 0.667676
vt 0.671367 0.335880
vt 0.338936 0.332787
vt 0.336275 0.002118
vt 0.671367 0.000200
vn 0.0000 1.0000 0.0000
vn 0.9534 -0.0000 0.3017
vn 0.2928 0.0000 -0.9562
vn -0.9578 0.0000 -0.2873
vn -0.2851 -0.0000 0.9585
vn 0.0000 -1.0000 -0.0000
usemtl Default_OBJ
s 1
f 1/1/1 2/2/1 3/3/1
f 1/1/1 3/3/1 4/4/1
f 5/5/2 6/6/2 7/7/2
f 5/5/2 7/7/2 8/8/2
f 9/9/3 10/10/3 11/11/3
f 9/9/3 11/11/3 12/12/3
f 13/13/4 14/14/4 15/15/4
f 13/13/4 15/15/4 16/16/4
f 17/17/5 18/18/5 19/19/5
f 17/17/5 19/19/5 20/20/5
f 21/21/6 22/22/6 23/23/6
f 21/21/6 23/23/6 24/24/6
